<?xml version="1.0" encoding="UTF-8"?>
<!DOCTYPE svg PUBLIC "-//W3C//DTD SVG 1.1//EN" "http://www.w3.org/Graphics/SVG/1.1/DTD/svg11.dtd">

<svg xmlns="http://www.w3.org/2000/svg" xml:space="preserve" width="2048px" height="2048px" style="shape-rendering:geometricPrecision; text-rendering:geometricPrecision; image-rendering:optimizeQuality; fill-rule:evenodd; clip-rule:evenodd"
viewBox="0 0 2048 2048"
 xmlns:xlink="http://www.w3.org/1999/xlink">
 <defs>
  <style type="text/css">
   <![CDATA[
    .fil2 {fill:none}
    .fil0 {fill:#212121;fill-rule:nonzero}
    .fil1 {fill:#66BB6A;fill-rule:nonzero}
   ]]>
  </style>
 </defs>
 <g id="Layer_x0020_1">
  <metadata id="CorelCorpID_0Corel-Layer"/>
  <path class="fil0" d="M655.998 600.863c0,-98.393 40.7008,-187.715 106.967,-253.594 66.1075,-65.7225 157.786,-107.988 259.786,-112.324l2.49921 0c102,4.33583 193.678,46.6016 259.786,112.324 66.2658,65.8784 106.967,155.201 106.967,253.594 0,186.007 71.7709,629.362 122.812,944.663 15.2941,94.4824 28.8142,177.993 36.8103,231.261l5.51693 36.7512 -37.1422 0 -496 0 -496 0 -37.1422 0 5.51693 -36.7512c7.99607,-53.2678 21.5162,-136.779 36.8103,-231.261 51.0414,-315.301 122.812,-758.656 122.812,-944.663zm151.967 -208.343c-54.4949,54.176 -87.965,127.564 -87.965,208.343 0,189.817 -72.3556,636.788 -123.814,954.662 -11.5335,71.2501 -21.9662,135.693 -30.9626,194.012l458.777 0 458.777 0c-8.99646,-58.3182 -19.4291,-122.762 -30.9626,-194.012 -51.4583,-317.874 -123.814,-764.845 -123.814,-954.662 0,-80.7792 -33.4701,-154.167 -87.965,-208.343 -54.9414,-54.6213 -131.137,-89.843 -216.036,-93.7631 -84.8989,3.92008 -161.094,39.1418 -216.036,93.7631z"/>
  <path class="fil1" d="M912 767.999c-17.6728,0 -32.0008,-14.328 -32.0008,-32.0008 0,-17.6728 14.328,-32.0008 32.0008,-32.0008l224.001 0c17.6728,0 32.0008,14.328 32.0008,32.0008 0,17.6728 -14.328,32.0008 -32.0008,32.0008l-224.001 0z"/>
  <path class="fil1" d="M913.313 484.954c22.0866,0 42.0874,8.95631 56.5666,23.4343 14.4768,14.4768 23.4343,34.4788 23.4343,56.5666 0,22.0866 -8.95631,42.0874 -23.4343,56.5666 -14.4791,14.478 -34.4799,23.4343 -56.5666,23.4343 -22.0878,0 -42.0898,-8.95749 -56.5666,-23.4343 -14.478,-14.4791 -23.4343,-34.4799 -23.4343,-56.5666 0,-22.0878 8.95749,-42.0898 23.4343,-56.5666 14.4768,-14.4768 34.4788,-23.4343 56.5666,-23.4343zm11.3162 68.6847c-2.89252,-2.89252 -6.8941,-4.68307 -11.3162,-4.68307 -4.42205,0 -8.42363,1.79055 -11.3162,4.68307 -2.89252,2.89252 -4.68307,6.8941 -4.68307,11.3162 0,4.42205 1.79055,8.42363 4.68307,11.3162 2.89252,2.89252 6.8941,4.68307 11.3162,4.68307 4.42205,0 8.42363,-1.79055 11.3162,-4.68307 2.89252,-2.89252 4.68307,-6.8941 4.68307,-11.3162 0,-4.42205 -1.79055,-8.42363 -4.68307,-11.3162z"/>
  <path class="fil1" d="M1134.69 484.954c22.0878,0 42.0898,8.95749 56.5666,23.4343 14.4768,14.4768 23.4343,34.4788 23.4343,56.5666 0,22.0866 -8.95631,42.0874 -23.4343,56.5666 -14.4768,14.4768 -34.4788,23.4343 -56.5666,23.4343 -22.0866,0 -42.0874,-8.95631 -56.5666,-23.4343 -14.478,-14.4791 -23.4343,-34.4799 -23.4343,-56.5666 0,-22.0878 8.95749,-42.0898 23.4343,-56.5666 14.4791,-14.478 34.4799,-23.4343 56.5666,-23.4343zm11.3162 68.6847c-2.89252,-2.89252 -6.8941,-4.68307 -11.3162,-4.68307 -4.42205,0 -8.42363,1.79055 -11.3162,4.68307 -2.89252,2.89252 -4.68307,6.8941 -4.68307,11.3162 0,4.42205 1.79055,8.42363 4.68307,11.3162 2.89252,2.89252 6.8941,4.68307 11.3162,4.68307 4.42205,0 8.42363,-1.79055 11.3162,-4.68307 2.89252,-2.89252 4.68307,-6.8941 4.68307,-11.3162 0,-4.42205 -1.79055,-8.42363 -4.68307,-11.3162z"/>
  <path class="fil0" d="M1056 1781.54c0,17.6728 -14.328,32.0008 -32.0008,32.0008 -17.6728,0 -32.0008,-14.328 -32.0008,-32.0008l0 -452.001c0,-17.6728 14.328,-32.0008 32.0008,-32.0008 17.6728,0 32.0008,14.328 32.0008,32.0008l0 452.001z"/>
  <path class="fil0" d="M789.217 1786.04c-2.48504,17.465 -18.6603,29.6103 -36.1252,27.1252 -17.465,-2.48504 -29.6103,-18.6603 -27.1252,-36.1252l65.315 -452.001c2.48504,-17.465 18.6603,-29.6103 36.1252,-27.1252 17.465,2.48504 29.6103,18.6603 27.1252,36.1252l-65.315 452.001z"/>
  <path class="fil0" d="M1322.03 1777.04c2.48504,17.465 -9.66024,33.6402 -27.1252,36.1252 -17.465,2.48504 -33.6402,-9.66024 -36.1252,-27.1252l-65.315 -452.001c-2.48504,-17.465 9.66024,-33.6402 27.1252,-36.1252 17.465,-2.48504 33.6402,9.66024 36.1252,27.1252l65.315 452.001z"/>
  <rect class="fil2" width="2048" height="2048"/>
 </g>
</svg>
